<svg xmlns="http://www.w3.org/2000/svg" width="536" height="293" viewBox="0 0 536 293">
  <g fill="#E8EDF2" fill-rule="evenodd">
    <path d="M 293.0,177.0 L 292.0,178.0 L 292.0,260.0 L 291.0,261.0 L 291.0,267.0 L 292.0,268.0 L 295.0,268.0 L 296.0,267.0 L 298.0,267.0 L 300.0,265.0 L 301.0,265.0 L 304.0,262.0 L 304.0,261.0 L 306.0,258.0 L 306.0,256.0 L 307.0,255.0 L 307.0,186.0 L 304.0,183.0 L 303.0,183.0 L 301.0,181.0 L 300.0,181.0 L 295.0,177.0 Z" />
    <path d="M 509.0,117.0 L 508.0,116.0 L 508.0,113.0 L 507.0,112.0 L 507.0,110.0 L 505.0,107.0 L 505.0,104.0 L 503.0,102.0 L 503.0,101.0 L 501.0,99.0 L 501.0,98.0 L 499.0,96.0 L 499.0,95.0 L 497.0,93.0 L 497.0,92.0 L 492.0,87.0 L 492.0,86.0 L 490.0,84.0 L 489.0,84.0 L 485.0,80.0 L 484.0,80.0 L 479.0,76.0 L 476.0,75.0 L 474.0,73.0 L 472.0,73.0 L 467.0,70.0 L 465.0,70.0 L 464.0,69.0 L 462.0,69.0 L 461.0,68.0 L 458.0,68.0 L 457.0,67.0 L 453.0,67.0 L 452.0,66.0 L 447.0,66.0 L 446.0,65.0 L 429.0,65.0 L 428.0,66.0 L 422.0,66.0 L 421.0,67.0 L 416.0,67.0 L 415.0,68.0 L 413.0,68.0 L 412.0,69.0 L 409.0,69.0 L 408.0,70.0 L 406.0,70.0 L 405.0,71.0 L 403.0,71.0 L 402.0,72.0 L 401.0,72.0 L 400.0,73.0 L 398.0,73.0 L 395.0,75.0 L 393.0,75.0 L 392.0,76.0 L 391.0,76.0 L 390.0,77.0 L 389.0,77.0 L 388.0,78.0 L 387.0,78.0 L 386.0,79.0 L 385.0,79.0 L 384.0,80.0 L 383.0,80.0 L 382.0,81.0 L 381.0,81.0 L 380.0,82.0 L 379.0,82.0 L 378.0,83.0 L 375.0,84.0 L 373.0,86.0 L 372.0,86.0 L 371.0,87.0 L 370.0,87.0 L 368.0,89.0 L 365.0,90.0 L 363.0,92.0 L 362.0,92.0 L 360.0,94.0 L 359.0,94.0 L 357.0,96.0 L 356.0,96.0 L 354.0,98.0 L 353.0,98.0 L 351.0,100.0 L 350.0,100.0 L 348.0,102.0 L 347.0,102.0 L 340.0,108.0 L 339.0,108.0 L 337.0,110.0 L 336.0,110.0 L 332.0,114.0 L 331.0,114.0 L 328.0,117.0 L 327.0,117.0 L 323.0,121.0 L 322.0,121.0 L 320.0,123.0 L 319.0,123.0 L 310.0,131.0 L 309.0,131.0 L 306.0,134.0 L 305.0,134.0 L 301.0,138.0 L 300.0,138.0 L 297.0,141.0 L 296.0,141.0 L 291.0,146.0 L 290.0,146.0 L 286.0,150.0 L 285.0,150.0 L 282.0,153.0 L 281.0,153.0 L 277.0,157.0 L 276.0,157.0 L 273.0,160.0 L 272.0,160.0 L 268.0,164.0 L 267.0,164.0 L 260.0,170.0 L 259.0,170.0 L 257.0,172.0 L 256.0,172.0 L 253.0,175.0 L 252.0,175.0 L 245.0,181.0 L 244.0,181.0 L 242.0,183.0 L 241.0,183.0 L 239.0,185.0 L 238.0,185.0 L 236.0,187.0 L 235.0,187.0 L 233.0,189.0 L 232.0,189.0 L 229.0,192.0 L 228.0,192.0 L 226.0,194.0 L 223.0,195.0 L 218.0,199.0 L 217.0,199.0 L 216.0,200.0 L 215.0,200.0 L 213.0,202.0 L 210.0,203.0 L 208.0,205.0 L 207.0,205.0 L 206.0,206.0 L 205.0,206.0 L 204.0,207.0 L 201.0,208.0 L 199.0,210.0 L 198.0,210.0 L 193.0,213.0 L 191.0,213.0 L 190.0,214.0 L 189.0,214.0 L 188.0,215.0 L 187.0,215.0 L 182.0,218.0 L 180.0,218.0 L 177.0,220.0 L 175.0,220.0 L 174.0,221.0 L 172.0,221.0 L 171.0,222.0 L 169.0,222.0 L 168.0,223.0 L 166.0,223.0 L 165.0,224.0 L 162.0,224.0 L 161.0,225.0 L 158.0,225.0 L 157.0,226.0 L 154.0,226.0 L 153.0,227.0 L 148.0,227.0 L 147.0,228.0 L 138.0,228.0 L 137.0,229.0 L 124.0,229.0 L 123.0,228.0 L 115.0,228.0 L 114.0,227.0 L 110.0,227.0 L 109.0,226.0 L 105.0,226.0 L 104.0,225.0 L 101.0,225.0 L 100.0,224.0 L 97.0,224.0 L 96.0,223.0 L 94.0,223.0 L 91.0,221.0 L 89.0,221.0 L 86.0,219.0 L 84.0,219.0 L 83.0,218.0 L 82.0,218.0 L 81.0,217.0 L 80.0,217.0 L 79.0,216.0 L 78.0,216.0 L 77.0,215.0 L 76.0,215.0 L 75.0,214.0 L 72.0,213.0 L 70.0,211.0 L 69.0,211.0 L 64.0,208.0 L 62.0,208.0 L 59.0,211.0 L 59.0,215.0 L 60.0,216.0 L 60.0,217.0 L 69.0,226.0 L 70.0,226.0 L 73.0,229.0 L 74.0,229.0 L 76.0,231.0 L 79.0,232.0 L 81.0,234.0 L 82.0,234.0 L 83.0,235.0 L 85.0,235.0 L 90.0,238.0 L 92.0,238.0 L 93.0,239.0 L 95.0,239.0 L 96.0,240.0 L 98.0,240.0 L 99.0,241.0 L 102.0,241.0 L 103.0,242.0 L 107.0,242.0 L 108.0,243.0 L 113.0,243.0 L 114.0,244.0 L 121.0,244.0 L 122.0,245.0 L 139.0,245.0 L 140.0,244.0 L 149.0,244.0 L 150.0,243.0 L 155.0,243.0 L 156.0,242.0 L 160.0,242.0 L 161.0,241.0 L 164.0,241.0 L 165.0,240.0 L 167.0,240.0 L 168.0,239.0 L 171.0,239.0 L 172.0,238.0 L 174.0,238.0 L 175.0,237.0 L 177.0,237.0 L 178.0,236.0 L 180.0,236.0 L 181.0,235.0 L 183.0,235.0 L 186.0,233.0 L 188.0,233.0 L 189.0,232.0 L 190.0,232.0 L 191.0,231.0 L 192.0,231.0 L 193.0,230.0 L 194.0,230.0 L 195.0,229.0 L 196.0,229.0 L 197.0,228.0 L 198.0,228.0 L 199.0,227.0 L 200.0,227.0 L 201.0,226.0 L 202.0,226.0 L 203.0,225.0 L 204.0,225.0 L 205.0,224.0 L 206.0,224.0 L 207.0,223.0 L 208.0,223.0 L 209.0,222.0 L 212.0,221.0 L 214.0,219.0 L 215.0,219.0 L 216.0,218.0 L 219.0,217.0 L 224.0,213.0 L 227.0,212.0 L 232.0,208.0 L 233.0,208.0 L 234.0,207.0 L 235.0,207.0 L 237.0,205.0 L 238.0,205.0 L 241.0,202.0 L 242.0,202.0 L 244.0,200.0 L 245.0,200.0 L 247.0,198.0 L 248.0,198.0 L 250.0,196.0 L 251.0,196.0 L 254.0,193.0 L 255.0,193.0 L 257.0,191.0 L 258.0,191.0 L 261.0,188.0 L 262.0,188.0 L 265.0,185.0 L 266.0,185.0 L 269.0,182.0 L 270.0,182.0 L 273.0,179.0 L 274.0,179.0 L 277.0,176.0 L 278.0,176.0 L 281.0,173.0 L 282.0,173.0 L 285.0,170.0 L 286.0,170.0 L 290.0,166.0 L 291.0,166.0 L 294.0,163.0 L 295.0,163.0 L 299.0,159.0 L 300.0,159.0 L 304.0,155.0 L 305.0,155.0 L 309.0,151.0 L 310.0,151.0 L 319.0,143.0 L 320.0,143.0 L 323.0,140.0 L 324.0,140.0 L 327.0,137.0 L 328.0,137.0 L 332.0,133.0 L 333.0,133.0 L 336.0,130.0 L 337.0,130.0 L 344.0,124.0 L 345.0,124.0 L 347.0,122.0 L 348.0,122.0 L 355.0,116.0 L 356.0,116.0 L 358.0,114.0 L 359.0,114.0 L 361.0,112.0 L 362.0,112.0 L 364.0,110.0 L 365.0,110.0 L 370.0,106.0 L 373.0,105.0 L 378.0,101.0 L 379.0,101.0 L 380.0,100.0 L 383.0,99.0 L 385.0,97.0 L 386.0,97.0 L 387.0,96.0 L 388.0,96.0 L 389.0,95.0 L 390.0,95.0 L 395.0,92.0 L 397.0,92.0 L 402.0,89.0 L 404.0,89.0 L 405.0,88.0 L 407.0,88.0 L 408.0,87.0 L 410.0,87.0 L 411.0,86.0 L 413.0,86.0 L 414.0,85.0 L 416.0,85.0 L 417.0,84.0 L 421.0,84.0 L 422.0,83.0 L 428.0,83.0 L 429.0,82.0 L 446.0,82.0 L 447.0,83.0 L 452.0,83.0 L 453.0,84.0 L 456.0,84.0 L 457.0,85.0 L 459.0,85.0 L 460.0,86.0 L 462.0,86.0 L 463.0,87.0 L 465.0,87.0 L 466.0,88.0 L 467.0,88.0 L 469.0,90.0 L 472.0,91.0 L 475.0,94.0 L 476.0,94.0 L 485.0,103.0 L 485.0,104.0 L 487.0,106.0 L 487.0,107.0 L 488.0,108.0 L 488.0,109.0 L 491.0,114.0 L 491.0,116.0 L 493.0,119.0 L 493.0,123.0 L 494.0,124.0 L 494.0,140.0 L 493.0,141.0 L 493.0,146.0 L 492.0,147.0 L 492.0,149.0 L 491.0,150.0 L 491.0,152.0 L 490.0,153.0 L 490.0,155.0 L 489.0,156.0 L 489.0,157.0 L 488.0,158.0 L 488.0,159.0 L 487.0,160.0 L 486.0,163.0 L 484.0,165.0 L 484.0,166.0 L 482.0,168.0 L 482.0,169.0 L 479.0,172.0 L 479.0,173.0 L 470.0,182.0 L 469.0,182.0 L 466.0,185.0 L 465.0,185.0 L 460.0,189.0 L 457.0,190.0 L 455.0,192.0 L 454.0,192.0 L 453.0,193.0 L 451.0,193.0 L 448.0,195.0 L 446.0,195.0 L 443.0,197.0 L 440.0,197.0 L 439.0,198.0 L 437.0,198.0 L 436.0,199.0 L 433.0,199.0 L 432.0,200.0 L 427.0,200.0 L 426.0,201.0 L 418.0,201.0 L 417.0,202.0 L 404.0,202.0 L 403.0,201.0 L 394.0,201.0 L 393.0,200.0 L 388.0,200.0 L 387.0,199.0 L 384.0,199.0 L 383.0,198.0 L 380.0,198.0 L 379.0,197.0 L 376.0,197.0 L 375.0,196.0 L 373.0,196.0 L 372.0,195.0 L 370.0,195.0 L 369.0,194.0 L 367.0,194.0 L 364.0,192.0 L 362.0,192.0 L 357.0,189.0 L 355.0,189.0 L 354.0,188.0 L 353.0,188.0 L 352.0,187.0 L 351.0,187.0 L 350.0,186.0 L 349.0,186.0 L 348.0,185.0 L 347.0,185.0 L 346.0,184.0 L 343.0,183.0 L 341.0,181.0 L 340.0,181.0 L 339.0,180.0 L 336.0,179.0 L 334.0,177.0 L 331.0,176.0 L 329.0,174.0 L 328.0,174.0 L 326.0,172.0 L 323.0,171.0 L 321.0,169.0 L 320.0,169.0 L 318.0,167.0 L 317.0,167.0 L 315.0,165.0 L 314.0,165.0 L 309.0,161.0 L 306.0,161.0 L 302.0,165.0 L 301.0,165.0 L 297.0,169.0 L 296.0,169.0 L 296.0,172.0 L 297.0,172.0 L 299.0,174.0 L 300.0,174.0 L 302.0,176.0 L 303.0,176.0 L 306.0,179.0 L 307.0,179.0 L 309.0,181.0 L 310.0,181.0 L 312.0,183.0 L 313.0,183.0 L 318.0,187.0 L 321.0,188.0 L 323.0,190.0 L 326.0,191.0 L 328.0,193.0 L 331.0,194.0 L 333.0,196.0 L 334.0,196.0 L 335.0,197.0 L 336.0,197.0 L 337.0,198.0 L 338.0,198.0 L 339.0,199.0 L 340.0,199.0 L 341.0,200.0 L 342.0,200.0 L 343.0,201.0 L 344.0,201.0 L 345.0,202.0 L 346.0,202.0 L 351.0,205.0 L 353.0,205.0 L 354.0,206.0 L 355.0,206.0 L 358.0,208.0 L 360.0,208.0 L 363.0,210.0 L 365.0,210.0 L 366.0,211.0 L 368.0,211.0 L 369.0,212.0 L 371.0,212.0 L 372.0,213.0 L 375.0,213.0 L 376.0,214.0 L 379.0,214.0 L 380.0,215.0 L 383.0,215.0 L 384.0,216.0 L 388.0,216.0 L 389.0,217.0 L 395.0,217.0 L 396.0,218.0 L 423.0,218.0 L 424.0,217.0 L 430.0,217.0 L 431.0,216.0 L 435.0,216.0 L 436.0,215.0 L 439.0,215.0 L 440.0,214.0 L 443.0,214.0 L 444.0,213.0 L 446.0,213.0 L 449.0,211.0 L 451.0,211.0 L 452.0,210.0 L 454.0,210.0 L 455.0,209.0 L 456.0,209.0 L 457.0,208.0 L 458.0,208.0 L 459.0,207.0 L 460.0,207.0 L 461.0,206.0 L 462.0,206.0 L 463.0,205.0 L 464.0,205.0 L 465.0,204.0 L 468.0,203.0 L 470.0,201.0 L 471.0,201.0 L 473.0,199.0 L 474.0,199.0 L 477.0,196.0 L 478.0,196.0 L 493.0,181.0 L 493.0,180.0 L 496.0,177.0 L 496.0,176.0 L 498.0,174.0 L 499.0,171.0 L 501.0,169.0 L 501.0,168.0 L 503.0,165.0 L 503.0,163.0 L 506.0,158.0 L 506.0,156.0 L 507.0,155.0 L 507.0,153.0 L 508.0,152.0 L 508.0,149.0 L 509.0,148.0 L 509.0,144.0 L 510.0,143.0 L 510.0,122.0 L 509.0,121.0 Z" />
    <path d="M 25.0,127.0 L 25.0,133.0 L 27.0,133.0 L 33.0,127.0 L 33.0,126.0 L 38.0,121.0 L 38.0,120.0 L 51.0,107.0 L 52.0,107.0 L 57.0,102.0 L 58.0,102.0 L 61.0,99.0 L 62.0,99.0 L 65.0,96.0 L 66.0,96.0 L 68.0,94.0 L 69.0,94.0 L 70.0,93.0 L 71.0,93.0 L 72.0,92.0 L 73.0,92.0 L 74.0,91.0 L 75.0,91.0 L 76.0,90.0 L 77.0,90.0 L 78.0,89.0 L 79.0,89.0 L 80.0,88.0 L 81.0,88.0 L 86.0,85.0 L 88.0,85.0 L 89.0,84.0 L 91.0,84.0 L 92.0,83.0 L 94.0,83.0 L 95.0,82.0 L 97.0,82.0 L 98.0,81.0 L 102.0,81.0 L 103.0,80.0 L 108.0,80.0 L 109.0,79.0 L 118.0,79.0 L 119.0,78.0 L 128.0,78.0 L 129.0,79.0 L 137.0,79.0 L 138.0,80.0 L 143.0,80.0 L 144.0,81.0 L 148.0,81.0 L 149.0,82.0 L 152.0,82.0 L 153.0,83.0 L 156.0,83.0 L 159.0,85.0 L 161.0,85.0 L 162.0,86.0 L 164.0,86.0 L 165.0,87.0 L 167.0,87.0 L 168.0,88.0 L 170.0,88.0 L 173.0,90.0 L 175.0,90.0 L 176.0,91.0 L 177.0,91.0 L 178.0,92.0 L 179.0,92.0 L 180.0,93.0 L 181.0,93.0 L 182.0,94.0 L 183.0,94.0 L 184.0,95.0 L 185.0,95.0 L 186.0,96.0 L 187.0,96.0 L 188.0,97.0 L 189.0,97.0 L 190.0,98.0 L 191.0,98.0 L 192.0,99.0 L 195.0,100.0 L 197.0,102.0 L 198.0,102.0 L 199.0,103.0 L 202.0,104.0 L 204.0,106.0 L 205.0,106.0 L 206.0,107.0 L 207.0,107.0 L 209.0,109.0 L 212.0,110.0 L 214.0,112.0 L 215.0,112.0 L 217.0,114.0 L 218.0,114.0 L 220.0,116.0 L 221.0,116.0 L 223.0,118.0 L 224.0,118.0 L 226.0,120.0 L 227.0,120.0 L 229.0,122.0 L 230.0,122.0 L 233.0,125.0 L 234.0,125.0 L 236.0,127.0 L 237.0,127.0 L 239.0,129.0 L 240.0,129.0 L 243.0,132.0 L 244.0,132.0 L 246.0,134.0 L 247.0,134.0 L 250.0,137.0 L 251.0,137.0 L 254.0,140.0 L 255.0,140.0 L 257.0,142.0 L 258.0,142.0 L 261.0,145.0 L 262.0,145.0 L 265.0,148.0 L 266.0,148.0 L 271.0,152.0 L 274.0,152.0 L 276.0,150.0 L 277.0,150.0 L 282.0,145.0 L 283.0,145.0 L 283.0,142.0 L 281.0,140.0 L 280.0,140.0 L 277.0,137.0 L 276.0,137.0 L 273.0,134.0 L 272.0,134.0 L 268.0,130.0 L 267.0,130.0 L 265.0,128.0 L 264.0,128.0 L 261.0,125.0 L 260.0,125.0 L 258.0,123.0 L 257.0,123.0 L 254.0,120.0 L 253.0,120.0 L 250.0,117.0 L 249.0,117.0 L 247.0,115.0 L 246.0,115.0 L 243.0,112.0 L 242.0,112.0 L 240.0,110.0 L 239.0,110.0 L 236.0,107.0 L 235.0,107.0 L 233.0,105.0 L 232.0,105.0 L 230.0,103.0 L 229.0,103.0 L 227.0,101.0 L 226.0,101.0 L 224.0,99.0 L 223.0,99.0 L 221.0,97.0 L 220.0,97.0 L 215.0,93.0 L 214.0,93.0 L 213.0,92.0 L 212.0,92.0 L 210.0,90.0 L 207.0,89.0 L 205.0,87.0 L 204.0,87.0 L 203.0,86.0 L 202.0,86.0 L 201.0,85.0 L 200.0,85.0 L 199.0,84.0 L 198.0,84.0 L 197.0,83.0 L 196.0,83.0 L 195.0,82.0 L 192.0,81.0 L 190.0,79.0 L 189.0,79.0 L 184.0,76.0 L 182.0,76.0 L 181.0,75.0 L 180.0,75.0 L 179.0,74.0 L 177.0,74.0 L 174.0,72.0 L 172.0,72.0 L 171.0,71.0 L 169.0,71.0 L 166.0,69.0 L 164.0,69.0 L 163.0,68.0 L 160.0,68.0 L 159.0,67.0 L 157.0,67.0 L 156.0,66.0 L 153.0,66.0 L 152.0,65.0 L 148.0,65.0 L 147.0,64.0 L 144.0,64.0 L 143.0,63.0 L 137.0,63.0 L 136.0,62.0 L 110.0,62.0 L 109.0,63.0 L 103.0,63.0 L 102.0,64.0 L 98.0,64.0 L 97.0,65.0 L 94.0,65.0 L 93.0,66.0 L 90.0,66.0 L 89.0,67.0 L 87.0,67.0 L 86.0,68.0 L 84.0,68.0 L 83.0,69.0 L 81.0,69.0 L 80.0,70.0 L 79.0,70.0 L 78.0,71.0 L 77.0,71.0 L 76.0,72.0 L 75.0,72.0 L 74.0,73.0 L 73.0,73.0 L 72.0,74.0 L 71.0,74.0 L 70.0,75.0 L 67.0,76.0 L 65.0,78.0 L 62.0,79.0 L 59.0,82.0 L 58.0,82.0 L 54.0,86.0 L 53.0,86.0 L 42.0,97.0 L 42.0,98.0 L 38.0,102.0 L 38.0,103.0 L 34.0,108.0 L 33.0,111.0 L 31.0,113.0 L 31.0,114.0 L 28.0,119.0 L 28.0,121.0 L 26.0,124.0 L 26.0,126.0 Z" />
    <path d="M 306.0,24.0 L 304.0,24.0 L 303.0,25.0 L 301.0,25.0 L 299.0,27.0 L 298.0,27.0 L 295.0,30.0 L 295.0,31.0 L 293.0,33.0 L 293.0,35.0 L 292.0,36.0 L 292.0,134.0 L 293.0,135.0 L 295.0,135.0 L 297.0,133.0 L 298.0,133.0 L 302.0,129.0 L 303.0,129.0 L 305.0,127.0 L 306.0,127.0 L 306.0,126.0 L 307.0,125.0 L 307.0,25.0 Z" />
  </g>
</svg>
